<svg xmlns="http://www.w3.org/2000/svg" x="0px" y="0px"
     width="32" height="32"
     viewBox="0 0 48 48"
     style=" fill:#000000;"><linearGradient id="WX5n~0dYBett_wj6JwCiNa_P0xhuRBy8MnO_gr1" x1="4" x2="44" y1="12.5" y2="12.5" gradientUnits="userSpaceOnUse"><stop offset=".176" stop-color="#cdcdcd"></stop><stop offset=".244" stop-color="#b5b5b5"></stop><stop offset=".274" stop-color="#b5b5b5"></stop><stop offset=".308" stop-color="#bdbdbd"></stop><stop offset=".349" stop-color="#cdcdcd"></stop><stop offset=".638" stop-color="#cdcdcd"></stop><stop offset=".668" stop-color="#c5c5c5"></stop><stop offset=".702" stop-color="#b5b5b5"></stop><stop offset=".76" stop-color="#b5b5b5"></stop><stop offset=".78" stop-color="#bdbdbd"></stop><stop offset=".803" stop-color="#cdcdcd"></stop></linearGradient><rect width="40" height="3" x="4" y="11" fill="url(#WX5n~0dYBett_wj6JwCiNa_P0xhuRBy8MnO_gr1)"></rect><linearGradient id="WX5n~0dYBett_wj6JwCiNb_P0xhuRBy8MnO_gr2" x1="6.438" x2="25.707" y1="-.499" y2="29.446" gradientUnits="userSpaceOnUse"><stop offset="0" stop-color="#fcfcfc"></stop><stop offset=".495" stop-color="#f4f4f4"></stop><stop offset=".946" stop-color="#e8e8e8"></stop><stop offset="1" stop-color="#e8e8e8"></stop></linearGradient><path fill="url(#WX5n~0dYBett_wj6JwCiNb_P0xhuRBy8MnO_gr2)" d="M42,41H6c-1.105,0-2-0.895-2-2V14h40v25C44,40.105,43.105,41,42,41z"></path><polygon fill="#f2f2f2" points="16,1 13,4 13,14 16,14"></polygon><polygon fill="#f2f2f2" points="32,1 35,4 35,14 32,14"></polygon><rect width="16" height="3" x="16" y="1" fill="#ccc"></rect><rect width="6.5" height="6.5" x="17" y="20" fill="#f25022"></rect><rect width="6.5" height="6.5" x="24.5" y="20" fill="#7fba00"></rect><rect width="6.5" height="6.5" x="17" y="27.5" fill="#00a4ef"></rect><rect width="6.5" height="6.5" x="24.5" y="27.5" fill="#ffb900"></rect><linearGradient id="WX5n~0dYBett_wj6JwCiNc_P0xhuRBy8MnO_gr3" x1="24" x2="24" y1="37.956" y2="41.21" gradientUnits="userSpaceOnUse"><stop offset="0" stop-color="#e8e8e8"></stop><stop offset=".332" stop-color="#e0e0e0"></stop><stop offset=".848" stop-color="#cacaca"></stop><stop offset="1" stop-color="#c2c2c2"></stop></linearGradient><path fill="url(#WX5n~0dYBett_wj6JwCiNc_P0xhuRBy8MnO_gr3)" d="M42,41H6c-1.105,0-2-0.895-2-2v-1h40v1C44,40.105,43.105,41,42,41z"></path></svg>